<?xml version="1.0"?>
<svg width="1174.5042276083961" height="2000" xmlns="http://www.w3.org/2000/svg" xmlns:svg="http://www.w3.org/2000/svg" version="1.1" xml:space="preserve">
 <desc>Created with Fabric.js 5.3.0</desc>

 <g class="layer">
  <title>Layer 1</title>
  <g id="background-logo" transform="matrix(1 0 0 1 587.252 1000)">
   <rect fill="rgb(255,255,255)" fill-opacity="0" fill-rule="nonzero" height="3712.25" id="svg_1" stroke-dashoffset="0" stroke-miterlimit="4" stroke-width="0" width="4640.32" x="-2320.16" y="-1856.13"/>
  </g>
  <g id="text-logo" transform="matrix(7.138948778320073 0 0 7.138948778320073 638.7092964057455 1432.0798605030363)">
   <g id="svg_2">
    <g id="text-logo-path-0" transform="matrix(1 0 0 1 0 0)">
     <path fill="rgb(79,232,158)" fill-rule="nonzero" id="svg_3" stroke-dashoffset="0" stroke-miterlimit="4" stroke-width="0.48" transform=" translate(0, 0)"/>
    </g>
   </g>
  </g>
  <g id="tagline-c349782e-9ba2-4d7a-a88f-99e086d1d059-logo" transform="matrix(7.138948778320073 0 0 7.138948778320073 551.8129690185563 1998.4769002593644)">
   <g id="svg_4">
    <g id="tagline-c349782e-9ba2-4d7a-a88f-99e086d1d059-logo-path-0" transform="matrix(1 0 0 1 0 0)">
     <path fill="rgb(79,232,158)" fill-rule="nonzero" id="svg_5" stroke-dashoffset="0" stroke-miterlimit="4" stroke-width="0.43" transform=" translate(0, 0)"/>
    </g>
   </g>
  </g>
  <g id="tagline-83fdfb2a-8044-4ad8-b129-1c6be14b1c43-logo" transform="matrix(1 0 0 1 0 0) matrix(7.13895 0 0 7.13895 289.005 515.367)">
   <g id="svg_6">
    <g id="tagline-83fdfb2a-8044-4ad8-b129-1c6be14b1c43-logo-path-0" transform="matrix(1 0 0 1 0 0)">
     <linearGradient fill="#00ff00" id="SVGID_204811" x1="-0.02" x2="-0.02" y1="-0.13" y2="1.08">
      <stop fill="#00ff00" offset="0%" stop-color="rgb(106,236,173)"/>
      <stop fill="#00ff00" offset="100%" stop-color="rgb(56,229,146)"/>
     </linearGradient>
     <path d="m82,-1.08c-3.26,-15.35 -5.58,-30.85 -6.98,-46.66c-0.16,-3.25 -2.79,-6.67 -7.13,-6.2c-11.16,1.09 -22.63,0.62 -33.94,-0.93c-8.53,-0.93 -9.61,11.47 -1.71,12.56l0,5.11c0,6.82 -0.47,9.77 -0.47,11.16c0,0.93 0.63,1.24 1.25,1.24c0.61,0 1.08,-0.47 1.08,-1.4c0,-1.39 -0.31,-3.87 -0.31,-11l0,-4.96c9.45,-0.15 18.6,0 28.05,0.46c0.62,3.42 0.47,7.29 0.16,11.01c-0.47,6.51 -1.86,13.33 -4.8,18.91c-1.71,2.64 -2.95,4.65 -4.81,4.96c-10.54,0.15 -19.06,-6.51 -25.57,-15.66c-10.08,-15.18 -14.42,-33.94 -13.49,-52.07c0.62,-8.22 2.32,-17.37 7.75,-22.95c3.56,-3.87 9.15,-4.49 14.26,-3.09c9.3,2.48 15.5,12.86 15.81,22.62c0.15,2.64 1.4,4.34 2.94,5.28l0,3.41c0,5.26 -0.46,7.59 -0.46,8.68c0,0.93 0.62,1.23 1.24,1.23c0.62,0 1.08,-0.46 1.08,-1.39c0,-0.93 -0.3,-2.94 -0.3,-8.52l0,-2.64l0.77,0.15c0.78,0.16 2.17,0.32 3.41,0c3.26,-0.92 5.27,-4.34 4.5,-7.75c-2.49,-10.38 -4.03,-21.07 -4.19,-31.92c0.16,-3.73 -3.56,-6.83 -7.44,-6.2c-3.41,0.46 -5.58,4.03 -5.11,7.44l0.61,3.56c-5.26,-3.88 -11.78,-6.51 -18.29,-6.66c-20.92,-0.93 -28.51,21.85 -28.67,38.13c-0.93,28.83 13.33,76.57 47.28,80.59l0,7.29c0,7.59 -0.62,10.85 -0.62,12.24c0,1.25 0.77,1.71 1.55,1.71c0.77,0 1.39,-0.62 1.39,-1.71c0,-1.54 -0.31,-4.18 -0.31,-12.24l0,-6.97l1.7,0c8.53,0.15 13.49,-6.67 16.44,-13.49l0.92,9.46c2.02,8.21 14.11,5.42 12.41,-2.79z" fill="#00ff00" fill-rule="nonzero" id="svg_7" stroke="rgb(255,255,255)" stroke-dashoffset="0" stroke-miterlimit="4" stroke-width="0" transform=" translate(-41.68034623608171, 45.53088926521971)"/>
    </g>
   </g>
  </g>
  <g id="tagline-c96ae7dc-bdbb-4969-a29e-ca841a83fb60-logo" transform="matrix(1 0 0 1 0 0) matrix(7.13895 0 0 7.13895 821.869 943.814)">
   <g id="svg_8">
    <g id="tagline-c96ae7dc-bdbb-4969-a29e-ca841a83fb60-logo-path-0" transform="matrix(1 0 0 1 0 0)">
     <linearGradient fill="#00ff00" id="SVGID_204812" x1="-0.03" x2="-0.03" y1="-0.18" y2="1.07">
      <stop fill="#00ff00" offset="0%" stop-color="rgb(106,236,173)"/>
      <stop fill="#00ff00" offset="100%" stop-color="rgb(56,229,146)"/>
     </linearGradient>
     <path d="m101.68,-12.87c-1.09,-25.88 -13.18,-76.41 -32.55,-93.77c-28.21,-21.55 -23.25,51.3 -21.7,63.55c0.47,4.5 1.09,8.83 1.86,13.02c-14.1,-22.32 -24.02,-47.43 -33.64,-72.07l-0.61,-1.71l-0.16,-0.15c-0.31,-1.25 -2.64,-3.72 -5.11,-3.88c-2.02,-0.15 -3.88,0.77 -5.27,1.86c-0.94,1.08 -1.25,2.33 -1.4,3.41l0,2.02c-0.62,34.4 1.7,68.82 5.89,103.38c0.47,3.1 2.64,4.8 5.12,5.12c-0.16,6.2 -0.47,8.98 -0.47,10.54c0,1.08 0.62,1.39 1.24,1.39c0.62,0 1.08,-0.46 1.08,-1.55l-0.31,-10.38c3.26,-0.47 5.89,-3.11 5.28,-7.13c-1.86,-8.99 -3.11,-17.67 -4.04,-26.67c-1.7,-15.81 -2.32,-31.62 -2.17,-47.74l1.87,4.35c7.9,16.73 15.96,33.32 25.88,49.13c5.27,8.21 10.38,16.43 18.6,22.94c0.16,0.15 0.46,0.31 0.77,0.46l0,9.93c0,8.36 -0.61,12.09 -0.61,13.64c0,1.23 0.77,1.7 1.54,1.7c0.78,0 1.4,-0.62 1.4,-1.86c0,-1.55 -0.31,-4.65 -0.31,-13.48l0,-9.15c4.03,0.62 7.28,-3.25 6.51,-7.13c0.31,-1.4 0.16,-3.1 -1.09,-4.49c-4.64,-6.67 -7.28,-15.2 -9.14,-23.57c-3.56,-17.36 -4.03,-35.64 -1.7,-53.01c0.46,-3.56 1.08,-7.44 2.01,-10.53l0,7.43c0,13.33 -0.47,19.07 -0.47,21.71c0,1.23 0.62,1.54 1.25,1.54c0.61,0 1.08,-0.46 1.08,-1.7c0,-2.64 -0.31,-7.44 -0.31,-21.55l0,-9.76c1.09,0.93 2.33,2.48 3.41,3.56c3.87,5.28 6.98,10.86 9.61,16.9c11.01,24.18 17.36,51.3 14.57,77.97c-0.15,3.72 2.02,5.89 4.96,6.35c0,8.68 -0.47,13.02 -0.47,15.04c0,1.08 0.62,1.39 1.25,1.39c0.61,0 1.08,-0.47 1.08,-1.55c0,-2.02 -0.31,-5.58 -0.31,-14.88c2.48,-0.16 5.12,-1.86 5.58,-5.58c0.15,-4.96 0.15,-10.08 0,-15.04z" fill="#00ff00" fill-rule="nonzero" id="svg_9" stroke="rgb(255,255,255)" stroke-dashoffset="0" stroke-miterlimit="4" stroke-width="0" transform=" translate(-52.39657342433665, 41.04018459645911)"/>
    </g>
   </g>
  </g>
 </g>
</svg>